HIERARCHY
ROOT Hips
{
	OFFSET	0.000000	0.000000	0.000000
	CHANNELS 6 Xposition Yposition Zposition Zrotation Xrotation Yrotation
	JOINT LeftUpLeg
	{
		OFFSET	12.811937	-7.635976	0.557276
		CHANNELS 3 Zrotation Xrotation Yrotation
		JOINT LeftLeg
		{
			OFFSET	-0.429270	-42.206159	-1.204951
			CHANNELS 3 Zrotation Xrotation Yrotation
			JOINT LeftFoot
			{
				OFFSET	-2.112259	-42.464481	-3.973220
				CHANNELS 3 Zrotation Xrotation Yrotation
				JOINT LeftFootHeel
				{
					OFFSET	0.387196	-5.329707	-3.419729
					CHANNELS 3 Zrotation Xrotation Yrotation
					End Site
					{
						OFFSET	0.327567	-0.000003	16.505428
					}
				}
			}
		}
	}
	JOINT RightUpLeg
	{
		OFFSET	-12.811937	-7.635976	0.557276
		CHANNELS 3 Zrotation Xrotation Yrotation
		JOINT RightLeg
		{
			OFFSET	0.429270	-42.206159	-1.204951
			CHANNELS 3 Zrotation Xrotation Yrotation
			JOINT RightFoot
			{
				OFFSET	2.112259	-42.464481	-3.973220
				CHANNELS 3 Zrotation Xrotation Yrotation
				JOINT RightFootHeel
				{
					OFFSET	-0.387198	-5.329707	-3.419729
					CHANNELS 3 Zrotation Xrotation Yrotation
					End Site
					{
						OFFSET	-0.327566	-0.000003	16.505428
					}
				}
			}
		}
	}
	JOINT Spine
	{
		OFFSET	0.000000	13.731315	-1.007646
		CHANNELS 3 Zrotation Xrotation Yrotation
		JOINT Spine1
		{
			OFFSET	0.000000	12.091746	-0.604589
			CHANNELS 3 Zrotation Xrotation Yrotation
			JOINT LeftShoulder
			{
				OFFSET	5.746115	20.990027	-0.833816
				CHANNELS 3 Zrotation Xrotation Yrotation
				JOINT LeftArm
				{
					OFFSET	10.881538	-1.359258	0.219250
					CHANNELS 3 Zrotation Xrotation Yrotation
					JOINT LeftForeArm
					{
						OFFSET	4.390314	-31.537147	0.202818
						CHANNELS 3 Zrotation Xrotation Yrotation
						JOINT LeftHand
						{
							OFFSET	3.168650	-24.865023	5.373370
							CHANNELS 3 Zrotation Xrotation Yrotation
							End Site
							{
								OFFSET	1.457528	-10.806075	2.170267
							}
						}
					}
				}
			}
			JOINT RightShoulder
			{
				OFFSET	-5.746115	20.990027	-0.833816
				CHANNELS 3 Zrotation Xrotation Yrotation
				JOINT RightArm
				{
					OFFSET	-10.881538	-1.359258	0.219250
					CHANNELS 3 Zrotation Xrotation Yrotation
					JOINT RightForeArm
					{
						OFFSET	-4.390314	-31.537147	0.202818
						CHANNELS 3 Zrotation Xrotation Yrotation
						JOINT RightHand
						{
							OFFSET	-3.168650	-24.865023	5.373370
							CHANNELS 3 Zrotation Xrotation Yrotation
							End Site
							{
								OFFSET	-1.457528	-10.806075	2.170267
							}
						}
					}
				}
			}
			JOINT Neck
			{
				OFFSET	0.000000	27.075639	0.680489
				CHANNELS 3 Zrotation Xrotation Yrotation
				JOINT Head
				{
					OFFSET	0.000000	12.391287	1.239129
					CHANNELS 3 Zrotation Xrotation Yrotation
					End Site
					{
						OFFSET	0.000000	13.818691	-0.105853
					}
				}
			}
		}
	}
}
MOTION
Frames:     6
Frame Time: 0.016667
0.384953	100.381333	0.427481	-0.196955	-1.440913	9.240315	-0.153821	1.698989	-4.921438	1.743656	1.683388	2.018682	-2.494606	-0.724241	-10.316670	0.	0.	0.	0.651981	2.403868	-7.033442	-1.324290	0.624185	6.355780	0.045808	-2.171706	-4.475048	0.	0.	0.	-0.466784	2.296255	1.085524	-0.020715	5.082837	-3.791118	1.662457	-2.865511	6.523803	1.930765	-0.548576	-4.338915	-1.686635	-1.573054	6.322749	3.151266	0.799215	-6.927333	0.963740	-1.781188	5.214619	-1.619755	3.402429	-5.105639	1.367128	-6.534033	-0.230785	-4.860396	1.082676	0.666969	-0.287950	0.766187	4.251542	3.321210	-3.064065	-8.415267	
0.384953	100.381333	0.427481	-0.196955	-1.440913	9.240315	-0.153821	1.698989	-4.921438	1.743656	1.683388	2.018682	-2.494606	-0.724241	-10.316670	0.	0.	0.	0.651981	2.403868	-7.033442	-1.324290	0.624185	6.355780	0.045808	-2.171706	-4.475048	0.	0.	0.	-0.521453	2.272804	0.832679	-0.025928	5.201806	-3.809542	1.720146	-2.951137	6.804646	1.930765	-0.548576	-4.338915	-1.686635	-1.573054	6.322749	3.151266	0.799215	-6.927333	1.016086	-1.870241	5.494174	-1.619755	3.402429	-5.105639	1.340498	-6.563262	-0.530491	-4.840877	1.100342	0.565632	-0.643428	0.995747	3.988561	3.723332	-3.383039	-7.847564	
0.387548	100.383270	0.322671	-0.244200	-1.449791	8.796698	-0.146730	1.694802	-4.742372	1.761643	1.696630	2.229924	-2.482360	-0.755496	-10.247499	0.	0.	0.	0.636315	2.279367	-6.884475	-1.308877	0.639638	6.503098	0.111393	-2.033322	-4.334557	0.	0.	0.	-0.549179	2.246364	1.019438	0.001904	5.277169	-3.833601	1.642679	-2.724803	6.373631	1.974010	-0.580600	-4.469496	-1.755945	-1.562044	6.350124	3.097917	0.710428	-6.878471	0.939147	-1.715626	5.066442	-1.654356	3.263679	-5.036442	1.455468	-6.647261	-0.166306	-4.809908	1.113630	0.446607	-1.037624	1.256175	3.687289	3.320815	-1.916548	-9.982299	
0.387825	100.383416	0.296504	-0.252635	-1.459000	8.688643	-0.146836	1.701411	-4.698502	1.765044	1.699218	2.269705	-2.478708	-0.762039	-10.219693	0.	0.	0.	0.630002	2.253863	-6.853687	-1.310328	0.649834	6.540147	0.130843	-2.009600	-4.296682	0.	0.	0.	-0.575043	2.241279	1.002681	0.016870	5.310665	-3.855928	1.625344	-2.674826	6.348663	1.992368	-0.604063	-4.514686	-1.774927	-1.557603	6.362849	3.085514	0.697286	-6.861881	0.923532	-1.683828	5.037425	-1.663336	3.220197	-5.004941	1.467806	-6.642566	-0.152421	-4.784094	1.106316	0.380783	-1.209252	1.399570	3.527455	3.332914	-1.683080	-10.273890	
0.387346	100.382912	0.243227	-0.266535	-1.477617	8.469274	-0.150241	1.715500	-4.609932	1.770246	1.702374	2.324709	-2.469077	-0.775145	-10.136524	0.	0.	0.	0.616675	2.200052	-6.786901	-1.302375	0.676944	6.623664	0.155196	-1.964122	-4.232249	0.	0.	0.	-0.633465	2.231122	0.968128	0.038125	5.379480	-3.892882	1.599958	-2.571383	6.302872	2.031478	-0.665621	-4.634436	-1.810560	-1.554430	6.399267	3.072070	0.681988	-6.838343	0.906488	-1.616512	4.979547	-1.687115	3.128915	-4.934073	1.483383	-6.620243	-0.119286	-4.727096	1.111766	0.246757	-1.503398	1.694535	3.213995	3.356213	-1.276849	-10.781840	
0.385897	100.381304	0.215600	-0.274251	-1.487012	8.359122	-0.151372	1.722545	-4.567275	1.772286	1.702954	2.343664	-2.460800	-0.789051	-10.080039	0.	0.	0.	0.611623	2.171093	-6.753535	-1.291640	0.691285	6.683439	0.165567	-1.938482	-4.220765	0.	0.	0.	-0.662921	2.225852	0.951766	0.029750	5.416379	-3.901941	1.606771	-2.519155	6.273549	2.050936	-0.701103	-4.703220	-1.829883	-1.558546	6.419663	3.080494	0.666772	-6.842036	0.942641	-1.637321	5.120275	-1.687115	3.128915	-4.934073	1.449221	-6.599888	-0.240058	-4.704956	1.132630	0.190284	-1.620254	1.843356	3.062765	3.374125	-1.099599	-11.017035	
